<svg xmlns="http://www.w3.org/2000/svg" xmlns:xlink="http://www.w3.org/1999/xlink" fill="none" version="1.1" width="288" height="90" viewBox="0 0 288 90"><g><g><path d="M21.63,52.56C21.51,57.66,22.08,71.16,9.84,77.7C11.04,78.50999999999999,12.21,79.68,12.84,80.64C19.11,76.95,22.29,71.49,23.94,66.18C25.65,71.37,29.01,77.28,35.7,80.46000000000001C36.21,79.44,37.23,78.21000000000001,38.34,77.34C27.87,72.66,25.98,61.41,25.56,57.33C25.68,55.47,25.74,53.85,25.77,52.56L21.63,52.56ZM42.33,80.8561C43.29,80.31,44.79,80.00999999999999,53.94,77.75999999999999C53.76,76.95,53.58,75.36,53.55,74.34L46.05,76.05L46.05,70.44L53.88,70.44C55.56,76.2,58.71,80.34,62.52,80.34C65.22,80.34,66.51,79.22999999999999,67.05,74.22C66.06,73.92,64.71,73.2,63.93,72.47999999999999C63.75,75.47999999999999,63.45,76.77000000000001,62.7,76.77000000000001C61.05,76.77000000000001,59.1,74.19,57.78,70.44L66.39,70.44L66.39,67.08L56.88,67.08C56.64,66,56.46,64.86,56.37,63.69L64.26,63.69L64.26,53.88L42.3,53.88L42.3,75.06C42.3,76.41,41.43,77.25,40.71,77.67C41.31,78.36,42.09,79.92,42.33,80.8561ZM53.1,67.08L46.05,67.08L46.05,63.69L52.65,63.69C52.74,64.86,52.89,65.97,53.1,67.08ZM46.05,57.21L60.6,57.21L60.6,60.36L46.05,60.36L46.05,57.21ZM85.2,62.760000000000005C88.2,64.23,92.49,66.48,94.56,67.8L97.02,64.92C94.74,63.629999999999995,90.33,61.59,87.51,60.3L85.2,62.760000000000005ZM80.31,60.33C77.7,62.28,74.37,63.93,71.07,64.95L73.11,68.22L74.76,67.47L74.76,70.53L81.96,70.53L81.96,76.41L71.07,76.41L71.07,79.68L97.05,79.68L97.05,76.41L85.8,76.41L85.8,70.53L93.45,70.53L93.45,67.32L75.09,67.32C77.85,66,80.67,64.28999999999999,82.8,62.55L80.31,60.33ZM81.06,53.271100000000004C81.42,54.0539,81.78,55.0172,82.08,55.89L70.86,55.89L70.86,63.269999999999996L74.4,63.269999999999996L74.4,59.16L93.45,59.16L93.45,62.67L97.2,62.67L97.2,55.89L86.52,55.89C86.1,54.7763,85.41,53.3311,84.9,52.2173L81.06,53.271100000000004ZM105.45,70.65C105.75,70.35,107.13,70.2,108.69,70.2L113.31,70.2L113.31,73.11L101.28,73.11L101.28,76.38L113.31,76.38L113.31,80.6827L116.91,80.6827L116.91,76.38L126.87,76.38L126.87,73.11L116.91,73.11L116.91,70.2L124.44,70.2L124.47,67.05L116.91,67.05L116.91,64.41L113.31,64.41L113.31,67.05L108.78,67.05C109.5,65.91,110.25,64.65,110.91,63.33L123.57,63.33L123.57,60.54L127.02,60.54L127.02,53.58L100.98,53.58L100.98,60.54L104.37,60.54L104.37,63.33L107.16,63.33C106.71,64.28999999999999,106.32,65.03999999999999,106.08,65.4C105.45,66.45,104.94,67.11,104.28,67.28999999999999C104.7,68.22,105.3,69.93,105.45,70.65ZM104.46,60.239999999999995L104.46,56.7L123.39,56.7L123.39,60.239999999999995L112.41,60.239999999999995C112.74,59.43,113.07,58.65,113.37,57.84L109.68,56.730000000000004C109.35,57.9,108.93,59.1,108.51,60.239999999999995L104.46,60.239999999999995ZM130.47,70.17L130.47,73.62L149.22,73.62L149.22,70.17L130.47,70.17ZM136.44,52.999700000000004C135.78,57.510000000000005,134.61,63.39,133.65,66.99L136.8,67.02L137.49,67.02L152.43,67.02C151.89,72.75,151.17,75.72,150.18,76.5C149.73,76.83,149.28,76.86,148.53,76.86C147.54,76.86,145.08,76.86,142.68,76.65C143.46,77.67,144,79.2,144.09,80.25C146.25,80.3414,148.47,80.4019,149.7,80.2805C151.29,80.13,152.31,79.86,153.3,78.81C154.71,77.37,155.52,73.77000000000001,156.3,65.25C156.36,64.77,156.42,63.69,156.42,63.69L138.21,63.69L139.02,59.61L155.64,59.61L155.64,56.16L139.65,56.16L140.13,53.3311L136.44,52.999700000000004ZM168.06,59.22L168.06,69.63L171.57,69.63L171.57,59.22L168.06,59.22ZM162.57,60.120000000000005L162.57,69L165.9,69L165.9,60.120000000000005L162.57,60.120000000000005ZM177.63,52.4906L177.63,54.18L170.52,54.18L170.52,52.4906L166.92,52.4906L166.92,54.18L160.59,54.18L160.59,57.18L166.92,57.18L166.92,58.71L170.52,58.71L170.52,57.18L177.63,57.18L177.63,58.8L181.2,58.8L181.2,57.18L187.5,57.18L187.5,54.18L181.2,54.18L181.2,52.4906L177.63,52.4906ZM178.53,65.43C179.76,66.84,180.99,68.85,181.44,70.2L184.35,68.64C183.84,67.32,182.61,65.52,181.38,64.17L186.36,64.17L186.36,61.17L178.86,61.17L179.34,59.46L175.98,58.8C175.29,61.86,173.94,64.86,172.11,66.75C172.95,67.2,174.36,68.16,175.02,68.7C176.04,67.5,176.97,65.94,177.75,64.17L181.02,64.17L178.53,65.43ZM163.5,70.47L163.5,76.97999999999999L160.26,76.97999999999999L160.26,80.03999999999999L187.8,80.03999999999999L187.8,76.97999999999999L184.86,76.97999999999999L184.86,70.47L163.5,70.47ZM166.83,76.97999999999999L166.83,73.25999999999999L169.65,73.25999999999999L169.65,76.97999999999999L166.83,76.97999999999999ZM172.65,76.97999999999999L172.65,73.25999999999999L175.5,73.25999999999999L175.5,76.97999999999999L172.65,76.97999999999999ZM178.5,76.97999999999999L178.5,73.25999999999999L181.35,73.25999999999999L181.35,76.97999999999999L178.5,76.97999999999999ZM190.92,63.57L190.92,67.26L201.03,67.26C199.8,71.0742,196.83,75.0084,189.87,77.4408C190.65,78.1617,191.76,79.6631,192.24,80.5341C199.02,78.0412,202.41,74.22749999999999,204.09,70.2333C206.58,75.1884,210.27,78.6722,215.91,80.47409999999999C216.45,79.4531,217.53,77.8913,218.4,77.1103C212.52,75.5789,208.68,72.0952,206.55,67.26L217.08,67.26L217.08,63.57L205.59,63.57C205.62,62.79,205.65,62.04,205.65,61.32L205.65,58.230000000000004L215.91,58.230000000000004L215.91,54.51L192.03,54.51L192.03,58.230000000000004L201.87,58.230000000000004L201.87,61.260000000000005C201.87,61.980000000000004,201.84,62.760000000000005,201.78,63.57L190.92,63.57ZM236.16,56.152L236.16,73.02000000000001L239.64,73.02000000000001L239.64,56.152L236.16,56.152ZM243.27,53.0573L243.27,76.25999999999999C243.27,76.83,243.03,77.00999999999999,242.46,77.03999999999999C241.83,77.03999999999999,239.88,77.03999999999999,237.9,76.95C238.44,77.97,239.01,79.65,239.16,80.67C241.92,80.67,243.9,80.55,245.16,79.97999999999999C246.39,79.38,246.84,78.39,246.84,76.28999999999999L246.84,53.0573L243.27,53.0573ZM232.08,52.606899999999996C229.17,53.9288,224.31,55.0706,219.96,55.7316C220.38,56.4825,220.86,57.7144,221.01,58.555800000000005C222.63,58.3453,224.34,58.044799999999995,226.05,57.7144L226.05,61.44L220.32,61.44L220.32,64.77L225.33,64.77C223.98,67.92,221.79,71.31,219.63,73.38C220.2,74.34,221.1,75.87,221.46,76.92C223.14,75.18,224.73,72.63,226.05,69.9L226.05,80.64L229.56,80.64L229.56,70.26C230.76,71.52,231.99,72.87,232.74,73.8L234.81,70.68C234.03,70.02,231.03,67.5,229.56,66.39L229.56,64.77L234.69,64.77L234.69,61.44L229.56,61.44L229.56,56.9634C231.39,56.5125,233.13,55.972,234.63,55.3711L232.08,52.606899999999996ZM268.47,56.032L268.47,72.9L271.56,72.9L271.56,56.032L268.47,56.032ZM274.08,53.0573L274.08,76.62C274.08,77.13,273.9,77.31,273.39,77.31C272.85,77.31,271.23,77.31,269.46,77.25C269.94,78.18,270.39,79.62,270.51,80.52000000000001C273,80.52000000000001,274.71,80.4,275.79,79.86C276.84,79.35,277.2,78.45,277.2,76.65L277.2,53.0573L274.08,53.0573ZM251.43,67.53C252.24,69.75,253.11,72.69,253.44,74.64L256.35,73.56C255.96,71.64,255.06,68.82,254.19,66.6L251.43,67.53ZM256.92,66.15C257.46,68.37,258.03,71.34,258.21,73.22999999999999L261.18,72.47999999999999C260.97,70.56,260.37,67.71000000000001,259.74,65.49L256.92,66.15ZM263.55,65.49C262.86,68.46000000000001,261.51,72.47999999999999,260.34,75.18C256.8,75.72,253.5,76.17,251.13,76.47L251.91,80.00999999999999C256.08,79.32,261.84,78.27000000000001,267.18,77.28L267.03,74.19L263.58,74.7C264.69,72.21000000000001,265.89,69.03,266.82,66.18L263.55,65.49ZM258.12,52.1564C256.14,55.972,252.75,59.6977,249.51,61.980000000000004C250.02,62.79,250.86,64.62,251.1,65.4C252.15,64.59,253.2,63.629999999999995,254.22,62.61L254.22,64.32L264.09,64.32L264.09,61.65C264.9,62.5209,265.62,63.3614,266.13,64.0823L268.11,61.35C266.58,59.3672,263.31,56.453,260.58,54.2292L261.09,53.2978L258.12,52.1564ZM255.45,61.29C256.74,59.8781,257.94,58.3458,259.02,56.7534C260.61,58.1653,262.32,59.7881,263.76,61.29L255.45,61.29Z" fill="#004FEA" fill-opacity="1"/></g><g transform="matrix(1,0,0,-1,0,52)"><rect x="11" y="26" width="90" height="1" rx="0" fill="#004FEA" fill-opacity="1"/></g><g><path d="M125.58,16.8322C125.03999999999999,18.62,124.03999999999999,20.4,122.82,21.5C123.34,21.74,124.22,22.22,124.76,22.58L119.96000000000001,22.58L121.94,21.84C121.8,21.4,121.5,20.84,121.2,20.28L123.82,20.28L123.82,18.56L119.18,18.56C119.36,18.1784,119.52,17.7966,119.68,17.415L117.5,16.8322C116.82,18.64,115.6,20.48,114.26,21.62C114.74,21.84,115.56,22.28,116.06,22.6L116.06,24.54L122.16,24.54L122.16,25.7L116.8,25.7C116.64,27.4,116.34,29.46,116.06,30.84L120.34,30.84C118.78,32.12,116.62,33.22,114.53999999999999,33.82C115.03999999999999,34.28,115.72,35.1416,116.06,35.7053C118.24,34.9,120.46000000000001,33.54,122.16,31.9L122.16,35.8059L124.52,35.8059L124.52,30.84L129.34,30.84C129.2,31.94,129.06,32.48,128.86,32.68C128.68,32.84,128.48,32.86,128.16,32.86C127.8,32.88,126.96000000000001,32.86,126.12,32.78C126.48,33.36,126.76,34.28,126.8,34.96C127.82,35.0003,128.78,34.9803,129.34,34.92C129.96,34.86,130.44,34.7,130.86,34.22C131.38,33.68,131.62,32.38,131.82,29.7C131.86,29.42,131.88,28.84,131.88,28.84L124.52,28.84L124.52,27.66L130.9,27.66L130.9,22.58L128.92000000000002,22.58L130.96,21.74C130.76,21.32,130.42000000000002,20.8,130.04,20.28L132.84,20.28L132.84,18.54L127.48,18.54C127.64,18.1584,127.78,17.7766,127.9,17.3747L125.58,16.8322ZM118.88,27.66L122.16,27.66L122.16,28.84L118.72,28.84L118.88,27.66ZM124.52,24.54L128.54,24.54L128.54,25.7L124.52,25.7L124.52,24.54ZM116.42,22.58C117.02,21.94,117.62,21.16,118.2,20.28L118.8,20.28C119.24,21.04,119.66,21.96,119.84,22.58L116.42,22.58ZM125.02,22.58C125.58,21.96,126.14,21.16,126.64,20.28L127.44,20.28C128,21.04,128.6,21.94,128.88,22.58L125.02,22.58ZM139.74,34L148.64,34L148.64,31.6L145.86,31.6L145.86,19.18L143.68,19.18C142.74,19.78,141.74,20.16,140.24,20.42L140.24,22.26L142.94,22.26L142.94,31.6L139.74,31.6L139.74,34ZM155.98,18.64C157,19.64,158.3,21.06,158.9,21.98L160.62,20.38C159.98,19.52,158.62,18.16,157.6,17.2359L155.98,18.64ZM155.14,23.14L155.14,25.3L157.52,25.3L157.52,31.2656C157.52,32.4666,156.8,33.4275,156.3,33.8878C156.72,34.1681,157.46,34.9487,157.72,35.3894C158.06,34.9287,158.7,34.3484,162.18,31.2656C161.9,30.845,161.48,29.9444,161.28,29.3037L159.82,30.585L159.82,23.14L155.14,23.14ZM162.22,17.82L162.22,26L166.4,26L166.4,27.14L161.28,27.14L161.28,29.3L165.3,29.3203C164.14,30.9625,162.4,32.4847,160.64,33.3059C161.14,33.7466,161.86,34.5875,162.2,35.1284C163.76,34.2072,165.24,32.685,166.4,30.9825L166.4,35.7894L168.76,35.7894L168.76,30.9025C169.84,32.5247,171.22,34.0269,172.51999999999998,34.9681C172.9,34.3672,173.64,33.5462,174.16,33.1256C172.64,32.2844,171.01999999999998,30.8222,169.88,29.32L173.68,29.32L173.68,27.14L168.76,27.14L168.76,26L172.78,26L172.78,17.82L162.22,17.82ZM164.38,22.82L166.5,22.82L166.5,24.12L164.38,24.12L164.38,22.82ZM168.68,22.82L170.5,22.82L170.5,24.12L168.68,24.12L168.68,22.82ZM164.38,19.7L166.5,19.7L166.5,20.98L164.38,20.98L164.38,19.7ZM168.68,19.7L170.5,19.7L170.5,20.98L168.68,20.98L168.68,19.7Z" fill="#004FEA" fill-opacity="1"/></g><g transform="matrix(1,0,0,-1,0,52)"><rect x="189" y="26" width="90" height="1" rx="0" fill="#004FEA" fill-opacity="1"/></g></g></svg>