<svg xmlns="http://www.w3.org/2000/svg" xmlns:xlink="http://www.w3.org/1999/xlink" fill="none" version="1.1" width="268" height="48.08203125" viewBox="0 0 268 48.08203125"><g><g><path d="M25.242,39.446031250000004C28.908,39.446031250000004,32.002,37.39203125,32.002,33.85603125C32.002,31.33403125,30.338,29.72203125,28.154,29.12403125L28.154,28.99403125C30.208,28.18803125,31.378,26.68003125,31.378,24.60003125C31.378,21.29803125,28.856,19.47803125,25.137999999999998,19.47803125C22.876,19.47803125,21.03,20.388031249999997,19.366,21.84403125L21.316,24.18403125C22.46,23.144031249999998,23.578,22.49403125,24.956,22.46803125C26.594,22.49403125,27.53,23.37803125,27.53,24.886031250000002C27.53,26.60203125,26.386,27.82403125,22.85,27.82403125L22.85,30.58003125C27.036,30.58003125,28.154,31.75003125,28.154,33.64803125C28.154,35.36403125,26.828,36.32603125,24.878,36.32603125C23.136,36.32603125,21.732,35.468031249999996,20.588,34.35003125L18.793996,36.76803125C20.146,38.30203125,22.2,39.446031250000004,25.242,39.446031250000004ZM37.644,39.446031250000004C39.022,39.446031250000004,40.036,38.35403125,40.036,36.950031249999995C40.036,35.54603125,39.022,34.45403125,37.644,34.45403125C36.292,34.45403125,35.278,35.54603125,35.278,36.950031249999995C35.278,38.35403125,36.292,39.446031250000004,37.644,39.446031250000004ZM52.854,17.086031249999998C52.75,21.48003125,53.244,33.12803125,42.688,38.77003125C43.728,39.47203125,44.716,40.46003125,45.262,41.29203125C50.67,38.12003125,53.4,33.41403125,54.83,28.83803125C56.338,33.31003125,59.224,38.38003125,64.99600000000001,41.13603125C65.412,40.25203125,66.29599999999999,39.212031249999995,67.25800000000001,38.458031250000005C58.184,34.45403125,56.598,24.65203125,56.234,21.142031250000002C56.338,19.58203125,56.39,18.17803125,56.416,17.086031249999998L52.854,17.086031249999998ZM74.77199999999999,29.61803125L74.77199999999999,26.68003125L80.49199999999999,26.68003125C80.57,27.69403125,80.7,28.65603125,80.882,29.61803125L74.77199999999999,29.61803125ZM87.304,21.09003125L87.304,23.82003125L74.77199999999999,23.82003125L74.77199999999999,21.09003125L87.304,21.09003125ZM92.296,32.50403125L92.296,29.61803125L84.08,29.61803125C83.898,28.65603125,83.742,27.69403125,83.664,26.68003125L90.45,26.68003125L90.45,18.23003125L71.52199999999999,18.23003125L71.52199999999999,36.50803125C71.52199999999999,37.65203125,70.768,38.38003125,70.196,38.74403125C70.664,39.342031250000005,71.366,40.694031249999995,71.574,41.47933125C72.38,41.03203125,73.654,40.77203125,81.298,39.00403125C81.142,38.30203125,80.98599999999999,36.950031249999995,80.96000000000001,36.06603125L74.77199999999999,37.36603125L74.77199999999999,32.50403125L81.55799999999999,32.50403125C82.988,37.444031249999995,85.718,41.03203125,88.968,41.03203125C91.308,41.03203125,92.426,40.07003125,92.868,35.75403125C92.01,35.49403125,90.892,34.92203125,90.19,34.29803125C90.034,36.87203125,89.774,37.964031250000005,89.124,37.964031250000005C87.694,37.964031250000005,86.004,35.72803125,84.86,32.50403125L92.296,32.50403125ZM108.442,32.58203125L115.046,32.58203125L115.046,29.82603125L99.186,29.82603125C101.552,28.68203125,103.996,27.20003125,105.842,25.71803125L103.71,23.82003125C101.448,25.48403125,98.588,26.91403125,95.728,27.79803125L97.47,30.60603125C97.938,30.39803125,98.406,30.19003125,98.9,29.95603125L98.9,32.58203125L105.14,32.58203125L105.14,37.678031250000004L95.754,37.678031250000004L95.754,40.486031249999996L118.14,40.486031249999996L118.14,37.678031250000004L108.442,37.678031250000004L108.442,32.58203125ZM118.088,27.77203125C116.164,26.65403125,112.342,24.886031250000002,109.898,23.79403125L107.948,25.92603125C110.522,27.14803125,114.214,29.07203125,116.008,30.24203125L118.088,27.77203125ZM109.066,19.99803125C108.702,19.00678125,108.104,17.80672125,107.636,16.81547125L104.334,17.72831125C104.646,18.40675125,104.984,19.21559125,105.27,19.99803125L95.546,19.99803125L95.546,26.34203125L98.588,26.34203125L98.588,22.80603125L115.046,22.80603125L115.046,25.84803125L118.244,25.84803125L118.244,19.99803125L109.066,19.99803125ZM124.666,23.74203125L124.666,20.648031250000003L140.96800000000002,20.648031250000003L140.96800000000002,23.74203125L131.478,23.74203125C131.79000000000002,23.04003125,132.076,22.31203125,132.336,21.636031250000002L129.164,20.67403125C128.878,21.714031249999998,128.514,22.75403125,128.15,23.74203125L124.666,23.74203125ZM141.124,26.36803125L141.124,23.97603125L144.114,23.97603125L144.114,17.970031249999998L121.676,17.970031249999998L121.676,23.97603125L124.588,23.97603125L124.588,26.36803125L127.006,26.36803125C126.59,27.22603125,126.252,27.87603125,126.044,28.18803125C125.524,29.07203125,125.082,29.64403125,124.51,29.80003125C124.874,30.60603125,125.368,32.08803125,125.524,32.68603125C125.784,32.452031250000005,126.928,32.29603125,128.30599999999998,32.29603125L132.284,32.29603125L132.284,34.818031250000004L121.91,34.818031250000004L121.91,37.62603125L132.284,37.62603125L132.284,41.355031249999996L135.404,41.355031249999996L135.404,37.62603125L143.98399999999998,37.62603125L143.98399999999998,34.818031250000004L135.404,34.818031250000004L135.404,32.29603125L141.904,32.29603125L141.93,29.59203125L135.404,29.59203125L135.404,27.33003125L132.284,27.33003125L132.284,29.59203125L128.38400000000001,29.59203125C128.982,28.60403125,129.632,27.51203125,130.23000000000002,26.36803125L141.124,26.36803125ZM160.416,33.96003125L160.416,32.34803125L157.27,32.34803125L157.27,33.96003125L153.526,33.96003125C154.202,33.28403125,154.852,32.556031250000004,155.372,31.80203125L162.704,31.80203125C163.25,32.556031250000004,163.874,33.28403125,164.576,33.96003125L160.416,33.96003125ZM154.852,28.11003125L162.99,28.11003125L162.99,29.28003125L154.852,29.28003125L154.852,28.11003125ZM162.99,21.53203125L162.99,22.67603125L154.852,22.67603125L154.852,21.53203125L162.99,21.53203125ZM154.852,24.80803125L162.99,24.80803125L162.99,25.952031249999997L154.852,25.952031249999997L154.852,24.80803125ZM170.972,31.80203125L170.972,29.28003125L166.162,29.28003125L166.162,21.53203125L169.724,21.53203125L169.724,19.03603125L166.162,19.03603125L166.162,17.07709125L162.99,17.07709125L162.99,19.03603125L154.852,19.03603125L154.852,17.07709125L151.758,17.07709125L151.758,19.03603125L148.17,19.03603125L148.17,21.53203125L151.758,21.53203125L151.758,29.28003125L146.792,29.28003125L146.792,31.80203125L151.81,31.80203125C150.38,33.18003125,148.456,34.37603125,146.558,35.078031249999995C147.208,35.62403125,148.092,36.71603125,148.534,37.444031249999995C149.99,36.79403125,151.394,35.858031249999996,152.668,34.79203125L152.668,36.40403125L157.27,36.40403125L157.27,38.09403125L149.106,38.09403125L149.106,40.64203125L168.892,40.64203125L168.892,38.09403125L160.416,38.09403125L160.416,36.40403125L165.148,36.40403125L165.148,34.480031249999996C166.422,35.59803125,167.826,36.56003125,169.23,37.21003125C169.672,36.456031249999995,170.608,35.36403125,171.284,34.818031250000004C169.412,34.16803125,167.592,33.05003125,166.214,31.80203125L170.972,31.80203125ZM186.52,33.80403125L186.52,25.25003125L186.624,25.25003125C187.768,28.42203125,189.302,31.36003125,191.148,33.80403125L186.52,33.80403125ZM178.46,33.80403125C180.332,31.36003125,181.918,28.42203125,183.062,25.25003125L183.244,25.25003125L183.244,33.80403125L178.46,33.80403125ZM196.322,25.25003125L196.322,22.10403125L186.52,22.10403125L186.52,17.07506125L183.244,17.07506125L183.244,22.10403125L173.494,22.10403125L173.494,25.25003125L179.864,25.25003125C178.252,29.17603125,175.6,32.89403125,172.584,34.974031249999996C173.312,35.54603125,174.3,36.71603125,174.846,37.49763125C175.886,36.66403125,176.874,35.702031250000005,177.784,34.63603125L177.784,36.950031249999995L183.244,36.950031249999995L183.244,41.355031249999996L186.52,41.355031249999996L186.52,36.950031249999995L191.876,36.950031249999995L191.876,34.68803125C192.734,35.702031250000005,193.644,36.61203125,194.632,37.36723125C195.178,36.50803125,196.27,35.28603125,197.076,34.66203125C194.034,32.608031249999996,191.408,29.04603125,189.77,25.25003125L196.322,25.25003125ZM218.292,35.08613125C217.876,33.52493125,216.836,30.97533125,215.978,29.10173125L213.69,29.90853125C214.002,30.58493125,214.314,31.36533125,214.574,32.146131249999996L211.766,32.640531249999995C212.832,30.63693125,213.898,28.32133125,214.6,26.08363125L211.688,25.25123125C211.038,28.08723125,209.686,31.15733125,209.244,31.96373125C208.828,32.79653125,208.412,33.29093125,207.944,33.420931249999995C208.256,34.17533125,208.75,35.55453125,208.88,36.07493125C209.452,35.762531249999995,210.362,35.47653125,215.406,34.46173125C215.588,35.06013125,215.744,35.60653125,215.848,36.048931249999995L218.292,35.08613125ZM212.858,21.16803125C213.274,20.047191249999997,213.664,18.90034125,213.976,17.72709125L210.96,17.04947125C210.31,19.76037125,209.244,22.46803125,207.866,24.52243125L207.866,21.89603125L205.396,21.89603125L205.396,17.04906125L202.38,17.04906125L202.38,21.89603125L198.974,21.89603125L198.974,24.75603125L202.198,24.75603125C201.444,27.90443125,200.04,31.54733125,198.48,33.57693125C198.974,34.38333125,199.65,35.81453125,199.936,36.672931250000005C200.846,35.34613125,201.678,33.420531249999996,202.38,31.23493125L202.38,41.35663125L205.396,41.35663125L205.396,29.49173125C205.942,30.61053125,206.488,31.75533125,206.748,32.53613125L208.62,30.40253125C208.178,29.62173125,206.15,26.57763125,205.396,25.66683125L205.396,24.75603125L207.71,24.75603125C207.398,25.224431250000002,207.06,25.640831249999998,206.722,26.031231249999998C207.45,26.44763125,208.698,27.43603125,209.244,27.98243125C210.05,26.88803125,210.882,25.51003125,211.636,24.028031249999998L219.358,24.028031249999998C219.098,33.336031250000005,218.708,37.080031250000005,218.032,37.88603125C217.772,38.25003125,217.512,38.35403125,217.044,38.35403125C216.446,38.35403125,215.25,38.35403125,213.95,38.224031249999996C214.496,39.108031249999996,214.86,40.434031250000004,214.912,41.29203125C216.264,41.34483125,217.642,41.37123125,218.5,41.18803125C219.462,41.03203125,220.138,40.720031250000005,220.814,39.78403125C221.776,38.458031250000005,222.088,34.324031250000004,222.452,22.62403125C222.452,22.23403125,222.478,21.16803125,222.478,21.16803125L212.858,21.16803125ZM244.292,25.35403125C243.668,27.46003125,242.81,29.38403125,241.796,31.12763125C241.354,29.04603125,240.99,26.60203125,240.756,24.00203125L248.79,24.00203125L248.79,20.93403125L246.086,20.93403125L247.334,19.604781250000002C246.424,18.744341249999998,244.526,17.54509125,243.096,16.81506125L241.224,18.66594125C242.29,19.31797125,243.59,20.15203125,244.552,20.93403125L240.574,20.93403125C240.522,19.65678125,240.496,18.37912125,240.522,17.07547125L237.272,17.07547125C237.272,18.37912125,237.324,19.65678125,237.376,20.93403125L226.768,20.93403125L226.768,28.52603125C226.768,31.90603125,226.586,36.43003125,224.61,39.55573125C225.312,39.920931249999995,226.69,41.06823125,227.236,41.66783125C229.368,38.48683125,229.914,33.41403125,230.018,29.61803125L233.398,29.61803125C233.32,32.89403125,233.216,34.14203125,232.956,34.50603125C232.748,34.76603125,232.54,34.818031250000004,232.176,34.818031250000004C231.76,34.818031250000004,230.876,34.79203125,229.94,34.714031250000005C230.408,35.49403125,230.746,36.690031250000004,230.798,37.60003125C231.994,37.626431249999996,233.112,37.626431249999996,233.788,37.52203125C234.568,37.39203125,235.088,37.15803125,235.582,36.48203125C236.18,35.72803125,236.336,33.41403125,236.414,27.95403125C236.414,27.59003125,236.44,26.78403125,236.44,26.78403125L230.018,26.78403125L230.018,24.00203125L237.558,24.00203125C237.896,27.90203125,238.468,31.54203125,239.352,34.480031249999996C237.844,36.17003125,236.05,37.60003125,234.048,38.69203125C234.698,39.29003125,235.816,40.56403125,236.284,41.24163125C237.896,40.25203125,239.352,39.08203125,240.678,37.70403125C241.822,39.836031250000005,243.252,41.13603125,245.072,41.13603125C247.49,41.13603125,248.53,39.99203125,249.024,35.18203125C248.192,34.84403125,247.1,34.16803125,246.398,33.440031250000004C246.268,36.690031250000004,245.956,37.99003125,245.332,37.99003125C244.5,37.99003125,243.668,36.89803125,242.914,35.02603125C244.786,32.50403125,246.32,29.48803125,247.386,26.10803125L244.292,25.35403125Z" fill="#000000" fill-opacity="1"/></g><g><rect x="166" y="0" width="9" height="3" rx="0" fill="#D8D8D8" fill-opacity="0"/></g><g><rect x="0" y="15.08203125" width="4" height="28" rx="0" fill="#004FEA" fill-opacity="1"/></g><g><rect x="264" y="15.08203125" width="4" height="28" rx="0" fill="#004FEA" fill-opacity="1"/></g></g></svg>