<svg xmlns="http://www.w3.org/2000/svg" xmlns:xlink="http://www.w3.org/1999/xlink" fill="none" version="1.1" width="216" height="58.16015625" viewBox="0 0 216 58.16015625"><g><g><path d="M22.381999999999998,41.256156250000004L25.372,36.47215625C25.918,35.43215625,26.438000000000002,34.36615625,26.906,33.35215625L27.009999999999998,33.35215625C26.958,34.47015625,26.854,36.21215625,26.854,37.33015625L26.854,41.256156250000004L22.381999999999998,41.256156250000004ZM32.704,41.256156250000004L30.416,41.256156250000004L30.416,29.920156249999998L25.84,29.920156249999998L18.663996,41.56815625L18.663996,44.168156249999996L26.854,44.168156249999996L26.854,49.16015625L30.416,49.16015625L30.416,44.168156249999996L32.704,44.168156249999996L32.704,41.256156250000004ZM37.644,49.524156250000004C39.022,49.524156250000004,40.036,48.43215625,40.036,47.028156249999995C40.036,45.62415625,39.022,44.53215625,37.644,44.53215625C36.292,44.53215625,35.278,45.62415625,35.278,47.028156249999995C35.278,48.43215625,36.292,49.524156250000004,37.644,49.524156250000004ZM56.442,42.66015625L63.046,42.66015625L63.046,39.90415625L47.186,39.90415625C49.552,38.76015625,51.996,37.278156249999995,53.842,35.796156249999996L51.71,33.89815625C49.448,35.56215625,46.588,36.99215625,43.728,37.87615625L45.47,40.68415625C45.938,40.47615625,46.406,40.268156250000004,46.9,40.034156249999995L46.9,42.66015625L53.14,42.66015625L53.14,47.756156250000004L43.754000000000005,47.756156250000004L43.754000000000005,50.564156249999996L66.14,50.564156249999996L66.14,47.756156250000004L56.442,47.756156250000004L56.442,42.66015625ZM66.088,37.85015625C64.164,36.73215625,60.342,34.96415625,57.898,33.87215625L55.948,36.00415625C58.522,37.22615625,62.214,39.150156249999995,64.00800000000001,40.32015625L66.088,37.85015625ZM57.066,30.07615625C56.702,29.08490625,56.104,27.88484625,55.636,26.89359625L52.334,27.80643625C52.646,28.48487625,52.984,29.29371625,53.27,30.07615625L43.546,30.07615625L43.546,36.420156250000005L46.588,36.420156250000005L46.588,32.884156250000004L63.046,32.884156250000004L63.046,35.92615625L66.244,35.92615625L66.244,30.07615625L57.066,30.07615625ZM72.666,33.82015625L72.666,30.726156250000003L88.968,30.726156250000003L88.968,33.82015625L79.47800000000001,33.82015625C79.78999999999999,33.11815625,80.076,32.390156250000004,80.336,31.714156250000002L77.164,30.75215625C76.878,31.792156249999998,76.51400000000001,32.83215625,76.15,33.82015625L72.666,33.82015625ZM89.124,36.44615625L89.124,34.05415625L92.114,34.05415625L92.114,28.048156249999998L69.676,28.048156249999998L69.676,34.05415625L72.588,34.05415625L72.588,36.44615625L75.006,36.44615625C74.59,37.30415625,74.25200000000001,37.95415625,74.044,38.26615625C73.524,39.150156249999995,73.082,39.72215625,72.50999999999999,39.87815625C72.874,40.68415625,73.368,42.16615625,73.524,42.76415625C73.78399999999999,42.530156250000005,74.928,42.37415625,76.306,42.37415625L80.28399999999999,42.37415625L80.28399999999999,44.896156250000004L69.91,44.896156250000004L69.91,47.70415625L80.28399999999999,47.70415625L80.28399999999999,51.433156249999996L83.404,51.433156249999996L83.404,47.70415625L91.984,47.70415625L91.984,44.896156250000004L83.404,44.896156250000004L83.404,42.37415625L89.904,42.37415625L89.93,39.670156250000005L83.404,39.670156250000005L83.404,37.408156250000005L80.28399999999999,37.408156250000005L80.28399999999999,39.670156250000005L76.384,39.670156250000005C76.982,38.68215625,77.632,37.59015625,78.22999999999999,36.44615625L89.124,36.44615625ZM118.27,31.01215625C117.568,29.920156249999998,116.008,28.464156250000002,114.708,27.44487625L112.602,29.06215625C113.876,30.12815625,115.358,31.714156250000002,116.008,32.75415625L118.27,31.01215625ZM107.064,28.30815625L97.236,28.30815625L97.236,31.06415625L107.064,31.06415625L107.064,28.30815625ZM104.672,46.45615625L104.672,42.37415625L108.39,42.37415625L108.39,39.64415625L104.672,39.64415625L104.672,36.73215625L101.708,36.73215625L101.708,46.97615625L99.758,47.28815625L99.758,38.396156250000004L96.898,38.396156250000004L96.898,47.73015625C96.118,47.86015625,95.416,47.96415625,94.766,48.06815625L95.546,51.08415625C99.264,50.408156250000005,104.464,49.47215625,109.248,48.536156250000005L109.014,45.67615625L104.672,46.45615625ZM118.504,35.97815625L118.504,33.14415625L111.978,33.14415625C111.9,31.24615625,111.874,29.27015625,111.926,27.235656249999998L108.78,27.235656249999998C108.78,29.24415625,108.832,31.220156250000002,108.91,33.14415625L95.26,33.14415625L95.26,35.97815625L109.066,35.97815625C109.69,44.558156249999996,111.38,51.44815625,115.28,51.44815625C117.62,51.44815625,118.608,50.22615625,119.024,45.390156250000004C118.218,45.07815625,117.152,44.37615625,116.476,43.674156249999996C116.372,46.95015625,116.086,48.38015625,115.592,48.38015625C113.98,48.38015625,112.68,43.05015625,112.16,35.97815625L118.504,35.97815625ZM136.49599999999998,48.146156250000004L136.49599999999998,45.884156250000004L139.564,45.884156250000004L139.564,48.146156250000004L136.49599999999998,48.146156250000004ZM128.904,48.146156250000004L126.148,48.146156250000004L126.148,45.884156250000004L128.904,45.884156250000004L128.904,48.146156250000004ZM128.696,33.11815625L125.524,33.11815625L125.524,30.80415625L128.696,30.80415625L128.696,33.11815625ZM136.574,30.80415625L139.98000000000002,30.80415625L139.98000000000002,33.11815625L136.574,33.11815625L136.574,30.80415625ZM144.66,40.528156249999995L144.66,37.85015625L140.31799999999998,37.85015625L140.994,37.174156249999996C140.39600000000002,36.70615625,139.434,36.16015625,138.498,35.71815625L142.94400000000002,35.71815625L142.94400000000002,28.20415625L133.792,28.20415625L133.792,35.71815625L136.574,35.71815625L135.50799999999998,36.73215625C136.262,37.018156250000004,137.094,37.43415625,137.822,37.85015625L132.414,37.85015625C132.82999999999998,37.174156249999996,133.24599999999998,36.47215625,133.584,35.74415625L131.608,35.38015625L131.608,28.20415625L122.768,28.20415625L122.768,35.71815625L130.256,35.71815625C129.892,36.44615625,129.424,37.14815625,128.878,37.85015625L121.13,37.85015625L121.13,40.528156249999995L126.07,40.528156249999995C124.588,41.62015625,122.768,42.60815625,120.558,43.414156250000005C121.156,43.96015625,121.936,45.10415625,122.196,45.83215625C122.586,45.67615625,122.95,45.52015625,123.314,45.33815625L123.314,51.45385625L126.148,51.45385625L126.148,50.82415625L128.904,50.82415625L128.904,51.29665625L131.868,51.29665625L131.868,43.23215625L127.084,43.23215625C128.28,42.400156249999995,129.346,41.49015625,130.28199999999998,40.528156249999995L134.832,40.528156249999995C135.74200000000002,41.51615625,136.834,42.45215625,138.03,43.23215625L133.662,43.23215625L133.662,51.45385625L136.49599999999998,51.45385625L136.49599999999998,50.82415625L139.564,50.82415625L139.564,51.29665625L142.554,51.29665625L142.554,45.49415625C142.814,45.59815625,143.1,45.67615625,143.36,45.75415625C143.776,45.00015625,144.608,43.85615625,145.284,43.284156249999995C142.918,42.71215625,140.63,41.75015625,138.836,40.528156249999995L144.66,40.528156249999995ZM161.69,35.87415625L156.828,35.87415625L156.828,38.52615625L169.906,38.52615625L169.906,35.87415625L164.81,35.87415625L164.81,32.83215625L170.452,32.83215625L170.452,30.15415625L164.81,30.15415625L164.81,27.12840625L161.69,27.12840625L161.69,30.15415625L156.152,30.15415625L156.152,32.83215625L161.69,32.83215625L161.69,35.87415625ZM152.252,30.96015625C151.524,30.15415625,150.068,29.058496249999997,148.95,28.32806625L147.182,30.07615625C148.326,30.88215625,149.73,32.07815625,150.38,32.884156250000004L152.252,30.96015625ZM152.356,39.61815625L155.216,39.61815625L155.216,27.12840625L152.356,27.12840625L152.356,33.768156250000004C150.25,34.652156250000004,148.196,35.48415625,146.688,36.03015625L147.676,38.52615625C149.08,37.92815625,150.744,37.20015625,152.356,36.49815625L152.356,39.61815625ZM167.176,43.15415625C166.188,43.90935625,164.784,44.79455625,163.536,45.47185625C162.808,44.79455625,162.158,44.039756249999996,161.638,43.15415625L167.176,43.15415625ZM167.722,43.15415625L170.686,43.15415625L170.686,40.71015625L160.754,40.71015625C160.494,40.034156249999995,160.13,39.30615625,159.792,38.70815625L156.776,39.56615625C156.932,39.90415625,157.088,40.29415625,157.244,40.71015625L147.104,40.71015625L147.104,43.15415625L154.852,43.15415625C152.642,44.45615625,149.626,45.44585625,146.61,45.940256250000004C147.182,46.513056250000005,147.936,47.50265625,148.3,48.153456250000005C149.652,47.867056250000005,150.978,47.476656250000005,152.278,47.00785625L152.278,47.42465625C152.278,48.62225625,151.316,49.06465625,150.744,49.273056249999996C151.056,49.76785625,151.498,50.939556249999995,151.628,51.616356249999995C152.252,51.25195625,153.344,50.99155625,160.65,49.48145625C160.65,48.88265625,160.728,47.71105625,160.884,47.00785625L155.268,48.07545625L155.268,45.653856250000004C156.594,44.950956250000004,157.738,44.143756249999996,158.726,43.23255625C160.728,47.52865625,164.004,50.13235625,169.386,51.27795625C169.75,50.496756250000004,170.53,49.35105625,171.128,48.75225625C168.944,48.38785625,167.098,47.78905625,165.59,46.95585625C166.916,46.30505625,168.424,45.44585625,169.646,44.58655625L167.722,43.15415625ZM180.878,31.89615625L188.496,31.89615625C187.43,32.83215625,186.182,33.63815625,184.752,34.34015625C183.166,33.66415625,181.788,32.884156250000004,180.774,32.00015625L180.878,31.89615625ZM183.192,42.58215625L183.192,43.98615625L179.006,43.98615625L179.006,42.58215625L183.192,42.58215625ZM190.29,43.98615625L186.39,43.98615625L186.39,42.58215625L190.29,42.58215625L190.29,43.98615625ZM186.39,48.06815625L186.39,46.37815625L190.29,46.37815625L190.29,48.06815625L186.39,48.06815625ZM179.006,48.06815625L179.006,46.37815625L183.192,46.37815625L183.192,48.06815625L179.006,48.06815625ZM191.538,29.087746250000002L191.018,29.21815625L183.452,29.21815625C183.868,28.722126250000002,184.232,28.19968625,184.596,27.70365625L181.242,27.02481625C179.89,29.19215625,177.316,31.53215625,173.468,33.17015625C174.144,33.63815625,175.08,34.73015625,175.522,35.45815625C176.614,34.91215625,177.576,34.34015625,178.486,33.71615625C179.344,34.44415625,180.306,35.09415625,181.294,35.71815625C178.564,36.57615625,175.496,37.174156249999996,172.376,37.512156250000004C172.896,38.21415625,173.494,39.540156249999995,173.728,40.39815625C174.43,40.29415625,175.08,40.19015625,175.782,40.06015625L175.782,51.45465625L179.006,51.45465625L179.006,50.69415625L190.29,50.69415625L190.29,51.428256250000004L193.696,51.428256250000004L193.696,39.95615625L176.38,39.95615625C179.344,39.384156250000004,182.23,38.57815625,184.804,37.43415625C188.028,38.73415625,191.72,39.61815625,195.568,40.08615625C195.958,39.22815625,196.816,37.902156250000004,197.466,37.20015625C194.216,36.914156250000005,191.044,36.36815625,188.288,35.58815625C190.446,34.15815625,192.266,32.41615625,193.566,30.284156250000002L191.538,29.087746250000002Z" fill="#000000" fill-opacity="1"/></g><g><rect x="166" y="0" width="9" height="3" rx="0" fill="#D8D8D8" fill-opacity="0"/></g><g><rect x="0" y="25.16015625" width="4" height="28" rx="0" fill="#004FEA" fill-opacity="1"/></g><g><rect x="212" y="25.16015625" width="4" height="28" rx="0" fill="#004FEA" fill-opacity="1"/></g></g></svg>