<svg xmlns="http://www.w3.org/2000/svg" xmlns:xlink="http://www.w3.org/1999/xlink" fill="none" version="1.1" width="162" height="38" viewBox="0 0 162 38"><g><g><path d="M20.25,29L31.82,29L31.82,25.906L28.206,25.906L28.206,9.76L25.372,9.76C24.15,10.514,22.823999999999998,11.008,20.9,11.372L20.9,13.738L24.384,13.738L24.384,25.906L20.25,25.906L20.25,29ZM37.644,29.364C39.022,29.364,40.036,28.272,40.036,26.868C40.036,25.464,39.022,24.372,37.644,24.372C36.292,24.372,35.278,25.464,35.278,26.868C35.278,28.272,36.292,29.364,37.644,29.364ZM46.666,13.66L46.666,10.566L62.968,10.566L62.968,13.66L53.478,13.66C53.79,12.958,54.076,12.23,54.336,11.554L51.164,10.592C50.878,11.632,50.514,12.672,50.15,13.66L46.666,13.66ZM63.124,16.286L63.124,13.894L66.114,13.894L66.114,7.888L43.676,7.888L43.676,13.894L46.588,13.894L46.588,16.286L49.006,16.286C48.59,17.144,48.251999999999995,17.794,48.044,18.106C47.524,18.99,47.082,19.562,46.510000000000005,19.718C46.873999999999995,20.524,47.367999999999995,22.006,47.524,22.604C47.784,22.37,48.928,22.214,50.306,22.214L54.284,22.214L54.284,24.736L43.91,24.736L43.91,27.544L54.284,27.544L54.284,31.273L57.404,31.273L57.404,27.544L65.98400000000001,27.544L65.98400000000001,24.736L57.404,24.736L57.404,22.214L63.904,22.214L63.93,19.51L57.404,19.51L57.404,17.248L54.284,17.248L54.284,19.51L50.384,19.51C50.982,18.522,51.632,17.43,52.23,16.286L63.124,16.286ZM77.294,7.20144C75.136,8.11347,71.86,8.86909,68.922,9.33791C69.23400000000001,10.0155,69.65,11.0316,69.75399999999999,11.7352C70.69,11.6312,71.652,11.4748,72.666,11.3184L72.666,14.258L68.818,14.258L68.818,17.144L72.25,17.144C71.314,19.666,69.858,22.448,68.402,24.14C68.87,24.8948,69.54599999999999,26.1969,69.832,27.0561C70.846,25.7541,71.80799999999999,23.9316,72.666,21.902L72.666,31.2742L75.682,31.2742L75.682,20.914C76.306,21.876,76.904,22.942,77.24199999999999,23.6452L79.00999999999999,21.226C78.542,20.602,76.436,18.236,75.682,17.56L75.682,17.144L78.542,17.144L78.542,14.258L75.682,14.258L75.682,10.6903C76.878,10.4299,78.02199999999999,10.1175,79.036,9.72709L77.294,7.20144ZM87.356,19.978L87.356,15.142L89.54,15.142L89.54,19.978L87.356,19.978ZM82.026,19.978L82.026,15.142L84.236,15.142L84.236,19.978L82.026,19.978ZM87.356,12.178L87.356,7.07144L84.236,7.07144L84.236,12.178L79.114,12.178L79.114,24.5564L82.026,24.5564L82.026,22.968L84.236,22.968L84.236,31.1958L87.356,31.1958L87.356,22.968L89.54,22.968L89.54,24.348L92.582,24.348L92.582,12.178L87.356,12.178ZM105.036,17.378L105.036,15.09L106.96,15.09L106.96,17.378L105.036,17.378ZM106.96,10.748L106.96,12.906L105.036,12.906L105.036,10.748L106.96,10.748ZM116.216,28.506C116.06,28.506,115.904,28.454,115.852,28.376C115.774,28.298,115.748,28.116,115.748,27.986L115.748,20.758L115.02,20.758C115.124,20.368,115.228,19.952,115.306,19.536L118.738,19.536L118.764,17.04L115.774,17.04C116.138,14.778,116.242,12.646,116.268,10.8L118.426,10.8L118.426,8.2L109.95,8.2L109.95,10.8L113.876,10.8C113.85,12.646,113.72,14.778,113.33,17.04L112.108,17.04C112.394,15.402,112.732,13.166,112.94,12.048L110.6,12.048C110.444,13.244,109.976,16.468,109.768,17.014C109.612,17.482,109.456,17.664,109.144,17.768L109.144,8.278L102.67,8.278L102.67,20.004C102.176,19.068,100.59,16.13,100.122,15.376L100.122,15.012L102.124,15.012L102.124,12.204L100.122,12.204L100.122,6.97028L97.444,6.97028L97.444,12.204L95.026,12.204L95.026,15.012L97.444,15.012L97.444,15.116C96.872,18.21,95.702,21.902,94.402,24.086C94.844,24.814,95.52,25.932,95.806,26.764C96.378,25.75,96.95,24.45,97.444,22.994L97.444,31.2397L100.122,31.2397L100.122,19.796C100.538,20.862,100.954,21.928,101.188,22.708L102.67,20.29L102.67,24.398C102.67,25.646,101.942,26.634,101.448,27.05C101.89,27.466,102.644,28.48,102.904,29.052C103.32,28.558,103.97,27.96,107.792,25.672C107.922,26.088,108.026,26.452,108.078,26.79L110.262,25.75C109.872,24.398,108.91,22.214,108.052,20.55L106.05,21.408C106.362,22.084,106.7,22.838,107.012,23.566L105.036,24.658L105.036,19.848L109.144,19.848L109.144,17.82C109.404,18.288,109.898,19.354,110.054,19.9L110.054,19.926C110.262,19.692,111.172,19.536,112.004,19.536L112.81,19.536C111.9,23.072,110.21,26.764,107.168,29.832C107.87,30.17,108.858,30.898,109.326,31.3449C111.146,29.468,112.446,27.362,113.46,25.178L113.46,28.142C113.46,29.572,113.59,29.962,113.98,30.378C114.344,30.768,114.916,30.924,115.514,30.924L116.658,30.924C117.126,30.924,117.594,30.768,117.932,30.534C118.27,30.274,118.478,29.884,118.634,29.364C118.764,28.766,118.868,27.31,118.894,26.01C118.374,25.828,117.724,25.464,117.334,25.152C117.36,26.348,117.334,27.388,117.282,27.778C117.23,28.064,117.152,28.272,117.048,28.376C116.97,28.48,116.814,28.506,116.632,28.506L116.216,28.506ZM127.708,13.192C126.798,11.71,124.796,9.422,123.314,7.80837L120.922,9.474C122.456,11.19,124.328,13.582,125.134,15.09L127.708,13.192ZM125.498,19.64C123.912,22.786,121.962,26.166,120.558,28.22L123.236,30.222C124.796,27.596,126.408,24.528,127.786,21.668L125.498,19.64ZM132.466,10.982L140.03199999999998,10.982L140.03199999999998,16.338L132.466,16.338L132.466,10.982ZM140.73399999999998,28.168C140.26600000000002,28.168,140.214,28.038,140.214,27.154L140.214,19.198L143.334,19.198L143.334,8.122L129.398,8.122L129.398,19.198L131.868,19.198C131.686,24.008,131.14,26.998,126.72,28.74C127.37,29.312,128.176,30.456,128.54000000000002,31.2393C133.76600000000002,29,134.624,25.048,134.91,19.198L137.12,19.198L137.12,27.154C137.12,29.988,137.692,30.95,140.162,30.95L142.164,30.95C144.21800000000002,30.95,144.97199999999998,29.754,145.232,25.724C144.4,25.49,143.152,24.996,142.52800000000002,24.502C142.45,27.622,142.346,28.168,141.852,28.168L140.73399999999998,28.168Z" fill="#000000" fill-opacity="1"/></g><g><rect x="0" y="5" width="4" height="28" rx="0" fill="#004FEA" fill-opacity="1"/></g><g><rect x="158" y="5" width="4" height="28" rx="0" fill="#004FEA" fill-opacity="1"/></g></g></svg>