<svg xmlns="http://www.w3.org/2000/svg" xmlns:xlink="http://www.w3.org/1999/xlink" fill="none" version="1.1" width="268" height="61.44091796875" viewBox="0 0 268 61.44091796875"><g><g><path d="M19.236,52.44091796875L32.132,52.44091796875L32.132,49.216917968749996L27.945999999999998,49.216917968749996C27.061999999999998,49.216917968749996,25.788,49.320917968749995,24.826,49.42491796875C28.336,45.99291796875,31.222,42.24891796875,31.222,38.76491796875C31.222,35.176917968750004,28.804000000000002,32.83691796875,25.164,32.83691796875C22.538,32.83691796875,20.822,33.87691796875,19.054,35.74891796875L21.134,37.82891796875C22.096,36.76291796875,23.266,35.85291796875,24.67,35.85291796875C26.490000000000002,35.85291796875,27.555999999999997,37.02291796875,27.555999999999997,38.97291796875C27.555999999999997,41.936917968749995,24.462,45.55091796875,19.236,50.23091796875L19.236,52.44091796875ZM37.644,52.804917968750004C39.022,52.804917968750004,40.036,51.71291796875,40.036,50.308917968749995C40.036,48.90491796875,39.022,47.81291796875,37.644,47.81291796875C36.292,47.81291796875,35.278,48.90491796875,35.278,50.308917968749995C35.278,51.71291796875,36.292,52.804917968750004,37.644,52.804917968750004ZM66.348,35.27721796875C65.594,34.05321796875,63.878,32.33438796875,62.5,31.13675796875L60.16,32.72519796875C61.564,33.97521796875,63.176,35.82411796875,63.852,37.02211796875L66.348,35.27721796875ZM63.02,41.572917968750005C62.344,42.820917968749995,61.486,43.99091796875,60.55,45.10891796875C60.264,43.78291796875,60.004,42.27491796875,59.796,40.71491796875L66.556,40.71491796875L66.556,37.77691796875L59.484,37.77691796875C59.276,35.48571796875,59.172,33.06360796875,59.224,30.64194796875L55.974,30.64194796875C56,33.01160796875,56.078,35.43321796875,56.286,37.77691796875L51.294,37.77691796875L51.294,34.26161796875C52.802,33.94921796875,54.232,33.61041796875,55.532,33.22000796875L53.452,30.58953796875C50.8,31.44916796875,46.769999999999996,32.28238796875,43.129999999999995,32.77719796875C43.468,33.480417968750004,43.884,34.62601796875,44.013999999999996,35.38121796875C45.34,35.22521796875,46.769999999999996,35.04281796875,48.174,34.80841796875L48.174,37.77691796875L43.260000000000005,37.77691796875L43.260000000000005,40.71491796875L48.174,40.71491796875L48.174,44.198917968749996C46.120000000000005,44.56291796875,44.248000000000005,44.84891796875,42.766,45.082917968749996L43.519999999999996,48.20291796875C44.897999999999996,47.942917968749995,46.510000000000005,47.60491796875,48.174,47.26691796875L48.174,51.036917968750004C48.174,51.45291796875,48.018,51.582917968749996,47.55,51.582917968749996C47.082,51.60891796875,45.574,51.63491796875,44.117999999999995,51.55691796875C44.56,52.414917968750004,45.08,53.81891796875,45.21,54.676917968750004C47.316,54.70331796875,48.876000000000005,54.572917968750005,49.89,54.078917968750005C50.93,53.58491796875,51.294,52.75291796875,51.294,51.06291796875L51.294,46.61691796875L55.532,45.75891796875L55.298,42.950917968750005C53.972,43.18491796875,52.62,43.444917968750005,51.294,43.67891796875L51.294,40.71491796875L56.572,40.71491796875C56.884,43.26291796875,57.326,45.62891796875,57.898,47.682917968750004C56.104,49.164917968750004,54.102,50.438917968750005,52.1,51.34891796875C52.854,52.05091796875,53.712,53.11691796875,54.154,53.844917968749996C55.818,52.98691796875,57.456,51.920917968750004,58.964,50.67291796875C60.082,53.22091796875,61.538,54.78091796875,63.436,54.78091796875C65.80199999999999,54.78091796875,66.76400000000001,53.63691796875,67.25800000000001,49.08691796875C66.426,48.74891796875,65.386,48.04691796875,64.71000000000001,47.31891796875C64.58,50.38691796875,64.268,51.63491796875,63.722,51.63491796875C62.942,51.63491796875,62.136,50.438917968750005,61.434,48.436917968749995C63.124,46.74691796875,64.58,44.84891796875,65.75,42.74291796875L63.02,41.572917968750005ZM82.182,43.444917968750005L84.6,43.444917968750005L83.014,44.25091796875C83.612,44.926917968750004,84.34,45.810917968750005,84.782,46.51291796875L82.182,46.51291796875L82.182,43.444917968750005ZM85.744,46.51291796875L87.096,45.75891796875C86.68,45.13491796875,85.848,44.17291796875,85.146,43.444917968750005L86.576,43.444917968750005L86.576,40.844917968749996L82.182,40.844917968749996L82.182,38.40091796875L87.148,38.40091796875L87.148,35.69691796875L74.382,35.69691796875L74.382,38.40091796875L79.322,38.40091796875L79.322,40.844917968749996L75.032,40.844917968749996L75.032,43.444917968750005L79.322,43.444917968750005L79.322,46.51291796875L74.096,46.51291796875L74.096,49.03491796875L87.564,49.03491796875L87.564,46.51291796875L85.744,46.51291796875ZM73.082,50.542917968750004L73.082,34.26691796875L88.474,34.26691796875L88.474,50.542917968750004L73.082,50.542917968750004ZM69.936,31.43291796875L69.936,54.71101796875L73.082,54.71101796875L73.082,53.40291796875L88.474,53.40291796875L88.474,54.71101796875L91.776,54.71101796875L91.776,31.43291796875L69.936,31.43291796875ZM108.442,45.94091796875L115.046,45.94091796875L115.046,43.18491796875L99.186,43.18491796875C101.552,42.04091796875,103.996,40.558917968749995,105.842,39.076917968749996L103.71,37.17891796875C101.448,38.84291796875,98.588,40.27291796875,95.728,41.15691796875L97.47,43.96491796875C97.938,43.75691796875,98.406,43.548917968750004,98.9,43.314917968749995L98.9,45.94091796875L105.14,45.94091796875L105.14,51.036917968750004L95.754,51.036917968750004L95.754,53.844917968749996L118.14,53.844917968749996L118.14,51.036917968750004L108.442,51.036917968750004L108.442,45.94091796875ZM118.088,41.13091796875C116.164,40.01291796875,112.342,38.24491796875,109.898,37.15291796875L107.948,39.28491796875C110.522,40.50691796875,114.214,42.430917968749995,116.008,43.60091796875L118.088,41.13091796875ZM109.066,33.35691796875C108.702,32.36566796875,108.104,31.16560796875,107.636,30.17435796875L104.334,31.08719796875C104.646,31.76563796875,104.984,32.57447796875,105.27,33.35691796875L95.546,33.35691796875L95.546,39.700917968750005L98.588,39.700917968750005L98.588,36.164917968750004L115.046,36.164917968750004L115.046,39.20691796875L118.244,39.20691796875L118.244,33.35691796875L109.066,33.35691796875ZM124.666,37.10091796875L124.666,34.00691796875L140.96800000000002,34.00691796875L140.96800000000002,37.10091796875L131.478,37.10091796875C131.79000000000002,36.39891796875,132.076,35.670917968750004,132.336,34.99491796875L129.164,34.03291796875C128.878,35.07291796875,128.514,36.11291796875,128.15,37.10091796875L124.666,37.10091796875ZM141.124,39.72691796875L141.124,37.33491796875L144.114,37.33491796875L144.114,31.328917968749998L121.676,31.328917968749998L121.676,37.33491796875L124.588,37.33491796875L124.588,39.72691796875L127.006,39.72691796875C126.59,40.58491796875,126.252,41.23491796875,126.044,41.54691796875C125.524,42.430917968749995,125.082,43.00291796875,124.51,43.15891796875C124.874,43.96491796875,125.368,45.44691796875,125.524,46.04491796875C125.784,45.810917968750005,126.928,45.65491796875,128.30599999999998,45.65491796875L132.284,45.65491796875L132.284,48.176917968750004L121.91,48.176917968750004L121.91,50.98491796875L132.284,50.98491796875L132.284,54.713917968749996L135.404,54.713917968749996L135.404,50.98491796875L143.98399999999998,50.98491796875L143.98399999999998,48.176917968750004L135.404,48.176917968750004L135.404,45.65491796875L141.904,45.65491796875L141.93,42.950917968750005L135.404,42.950917968750005L135.404,40.688917968750005L132.284,40.688917968750005L132.284,42.950917968750005L128.38400000000001,42.950917968750005C128.982,41.96291796875,129.632,40.87091796875,130.23000000000002,39.72691796875L141.124,39.72691796875ZM160.598,50.85491796875L160.598,45.83691796875L168.06,45.83691796875L168.06,42.84691796875L160.598,42.84691796875L160.598,38.34891796875L169.308,38.34891796875L169.308,35.332917968749996L161.066,35.332917968749996L162.444,34.31691796875C161.352,33.11803796875,159.116,31.45038796875,157.452,30.381947968749998L154.904,32.15400796875C156.152,33.06603796875,157.712,34.26491796875,158.804,35.332917968749996L148.404,35.332917968749996L148.404,38.34891796875L157.192,38.34891796875L157.192,42.84691796875L149.782,42.84691796875L149.782,45.83691796875L157.192,45.83691796875L157.192,50.85491796875L147.312,50.85491796875L147.312,53.89691796875L170.582,53.89691796875L170.582,50.85491796875L160.598,50.85491796875ZM188.314,46.90291796875C187.69,47.86491796875,186.91,48.61891796875,185.974,49.26891796875C184.492,48.90491796875,182.932,48.54091796875,181.398,48.20291796875C181.736,47.81291796875,182.022,47.37091796875,182.334,46.90291796875L188.314,46.90291796875ZM177.602,37.932917968750004L180.332,37.932917968750004L180.332,40.35091796875L177.602,40.35091796875L177.602,37.932917968750004ZM183.244,34.00691796875L186.182,34.00691796875L186.182,35.48891796875L183.244,35.48891796875L183.244,34.00691796875ZM192.214,37.932917968750004L192.214,40.35091796875L189.094,40.35091796875L189.094,37.932917968750004L192.214,37.932917968750004ZM183.244,40.35091796875L183.244,37.932917968750004L186.182,37.932917968750004L186.182,40.35091796875L183.244,40.35091796875ZM196.66,46.90291796875L196.66,44.22491796875L184.05,44.22491796875C184.258,43.83491796875,184.492,43.47091796875,184.674,43.08091796875L183.374,42.76891796875L195.308,42.76891796875L195.308,35.48891796875L189.094,35.48891796875L189.094,34.00691796875L196.14,34.00691796875L196.14,31.328917968749998L173.494,31.328917968749998L173.494,34.00691796875L180.332,34.00691796875L180.332,35.48891796875L174.69,35.48891796875L174.69,42.76891796875L181.294,42.76891796875C181.034,43.26291796875,180.748,43.73091796875,180.462,44.22491796875L173.104,44.22491796875L173.104,46.90291796875L178.694,46.90291796875C177.914,47.96891796875,177.134,48.930917968749995,176.406,49.73691796875C178.33,50.12691796875,180.176,50.56891796875,181.97,51.01091796875C179.682,51.63491796875,176.874,51.94691796875,173.494,52.076917968749996C173.962,52.75291796875,174.456,53.81891796875,174.664,54.72891796875C179.656,54.31291796875,183.504,53.63691796875,186.364,52.23291796875C189.198,53.064917968749995,191.694,53.87091796875,193.592,54.62491796875L196.036,52.20691796875C194.216,51.582917968749996,191.928,50.85491796875,189.38,50.17891796875C190.316,49.26891796875,191.096,48.20291796875,191.746,46.90291796875L196.66,46.90291796875ZM213.534,39.23291796875C213.612,38.01091796875,213.664,36.78891796875,213.716,35.54091796875L210.466,35.54091796875C210.44,36.78891796875,210.414,38.01091796875,210.336,39.23291796875L204.642,39.23291796875L204.642,42.14491796875L210.076,42.14491796875C209.504,46.35691796875,207.996,49.91891796875,203.524,52.28491796875C204.278,52.804917968750004,205.136,53.81891796875,205.526,54.55101796875C210.726,51.686917968749995,212.52,47.24091796875,213.248,42.14491796875L218.5,42.14491796875C218.214,47.76091796875,217.85,50.23091796875,217.252,50.828917968750005C216.94,51.14091796875,216.628,51.192917968749995,216.16,51.192917968749995C215.484,51.192917968749995,214.054,51.16691796875,212.546,51.06291796875C213.118,51.920917968750004,213.534,53.22091796875,213.586,54.13091796875C215.094,54.18371796875,216.602,54.20971796875,217.486,54.10491796875C218.552,53.97491796875,219.254,53.688917968750005,219.93,52.83091796875C220.866,51.73891796875,221.256,48.59291796875,221.646,40.558917968749995C221.672,40.16891796875,221.698,39.23291796875,221.698,39.23291796875L213.534,39.23291796875ZM222.556,31.40691796875L200.456,31.40691796875L200.456,40.63691796875C200.456,44.40691796875,200.326,49.52891796875,198.532,53.01291796875C199.286,53.32491796875,200.742,54.18371796875,201.34,54.70821796875C203.316,50.88091796875,203.628,44.79691796875,203.628,40.63691796875L203.628,34.31891796875L222.556,34.31891796875L222.556,31.40691796875ZM244.578,36.86691796875L238.078,36.86691796875L238.078,33.74691796875L244.578,33.74691796875L244.578,36.86691796875ZM247.594,31.14691796875L235.192,31.14691796875L235.192,39.466917968749996L247.594,39.466917968749996L247.594,31.14691796875ZM234.672,45.21291796875C234.204,44.56291796875,232.176,41.96291796875,231.37,41.078917968750005L231.37,40.63691796875L234.074,40.63691796875L234.074,37.75091796875L231.37,37.75091796875L231.37,33.90291796875C232.332,33.64291796875,233.268,33.35691796875,234.074,33.01891796875L232.28,30.49163796875C230.434,31.38091796875,227.678,32.16091796875,225.182,32.60291796875C225.52,33.27891796875,225.91,34.31891796875,226.04,34.99491796875C226.846,34.86491796875,227.652,34.73491796875,228.51,34.57891796875L228.51,37.75091796875L225.208,37.75091796875L225.208,40.63691796875L228.016,40.63691796875C227.184,43.13291796875,225.858,45.914917968750004,224.532,47.60491796875C225,48.41091796875,225.702,49.76291796875,226.014,50.67291796875C226.924,49.42491796875,227.756,47.63091796875,228.51,45.73291796875L228.51,54.73501796875L231.37,54.73501796875L231.37,44.71891796875C231.968,45.83691796875,232.54,47.00691796875,232.878,47.786917968750004L234.672,45.21291796875ZM243.174,51.21891796875L243.174,48.85291796875L247.75,48.85291796875L247.75,46.12291796875L243.174,46.12291796875L243.174,43.808917968749995L248.4,43.808917968749995L248.4,41.052917968749995L234.932,41.052917968749995L234.932,43.808917968749995L240.08,43.808917968749995L240.08,46.12291796875L235.556,46.12291796875L235.556,48.85291796875L240.08,48.85291796875L240.08,51.21891796875L233.918,51.21891796875L233.918,54.02691796875L248.946,54.02691796875L248.946,51.21891796875L243.174,51.21891796875Z" fill="#000000" fill-opacity="1"/></g><g><rect x="0" y="28.44091796875" width="4" height="28" rx="0" fill="#004FEA" fill-opacity="1"/></g><g><rect x="264" y="28.44091796875" width="4" height="28" rx="0" fill="#004FEA" fill-opacity="1"/></g><g><rect x="166" y="0" width="9" height="3" rx="0" fill="#D8D8D8" fill-opacity="0"/></g></g></svg>