<svg xmlns="http://www.w3.org/2000/svg" xmlns:xlink="http://www.w3.org/1999/xlink" fill="none" version="1.1" width="22.49887466430664" height="18.75" viewBox="0 0 22.49887466430664 18.75"><g><path d="M22.4989,0.0000466704C22.4989,0.0000466704,22.4989,1.87504,22.4989,1.87504C22.4989,1.87504,5.62386,1.875,5.62386,1.875C5.62386,1.875,5.62386,4.91655e-7,5.62386,4.91655e-7C5.62386,4.91655e-7,22.4989,0.0000466704,22.4989,0.0000466704C22.4989,0.0000466704,22.4989,0.0000466704,22.4989,0.0000466704ZM2.81136,2.45777e-7C2.81136,2.45777e-7,2.81136,1.875,2.81136,1.875C2.81136,1.875,0,1.875,0,1.875C0,1.875,1.63914e-7,0,1.63914e-7,0C1.63914e-7,0,2.81136,2.45777e-7,2.81136,2.45777e-7C2.81136,2.45777e-7,2.81136,2.45777e-7,2.81136,2.45777e-7ZM5.62386,8.43761C5.62386,8.43761,22.4989,8.43767,22.4989,8.43767C22.4989,8.43767,22.4989,10.3127,22.4989,10.3127C22.4989,10.3127,5.62386,10.3126,5.62386,10.3126C5.62386,10.3126,5.62386,8.43761,5.62386,8.43761C5.62386,8.43761,5.62386,8.43761,5.62386,8.43761ZM1.63914e-7,8.43761C1.63914e-7,8.43761,2.81136,8.43761,2.81136,8.43761C2.81136,8.43761,2.81136,10.3126,2.81136,10.3126C2.81136,10.3126,0,10.3126,0,10.3126C0,10.3126,1.63914e-7,8.43761,1.63914e-7,8.43761C1.63914e-7,8.43761,1.63914e-7,8.43761,1.63914e-7,8.43761ZM5.62386,16.875C5.62386,16.875,22.4989,16.875,22.4989,16.875C22.4989,16.875,22.4989,18.75,22.4989,18.75C22.4989,18.75,5.62386,18.75,5.62386,18.75C5.62386,18.75,5.62386,16.875,5.62386,16.875C5.62386,16.875,5.62386,16.875,5.62386,16.875ZM1.63914e-7,16.875C1.63914e-7,16.875,2.81136,16.875,2.81136,16.875C2.81136,16.875,2.81136,18.75,2.81136,18.75C2.81136,18.75,0,18.75,0,18.75C0,18.75,1.63914e-7,16.875,1.63914e-7,16.875C1.63914e-7,16.875,1.63914e-7,16.875,1.63914e-7,16.875Z" fill="#383838" fill-opacity="1"/></g></svg>