<svg xmlns="http://www.w3.org/2000/svg" xmlns:xlink="http://www.w3.org/1999/xlink" fill="none" version="1.1" width="32" height="32" viewBox="0 0 32 32"><defs><clipPath id="master_svg0_724_03133"><rect x="0" y="0" width="32" height="32" rx="0"/></clipPath></defs><g clip-path="url(#master_svg0_724_03133)"><g><path d="M12.133255859375,10.600019609375C12.399855859375,10.866679609375,12.733255859375,11.000019609375,13.066555859375,11.000019609375C13.333255859375,11.000019609375,13.666555859375,10.933349609375,13.866555859375,10.733349609375C14.399855859375,10.333349609375,14.399855859375,9.533349609375,13.999855859375,9.066679609375L9.133235859374999,3.400016609375L9.066565859375,3.333349609375C8.533235859375,2.800016609375,7.666565859375,2.800016609375,7.133235859375,3.333349609375L7.066565859375,3.400016609375L2.199902859375,9.066679609375C1.799903859375,9.533349609375,1.866569959375,10.333349609375,2.333236859375,10.733349609375C2.799902859375,11.133349609375,3.599905859375,11.066679609375,3.999905859375,10.600019609375L6.733235859375,7.418599609375L6.733235859375,18.237149609375003L4.066565859375,15.133349609375C3.666565859375,14.600049609375,2.8665698593749998,14.600049609375,2.399902859375,15.000049609375C1.866569859375,15.400049609375,1.866569859375,16.200049609375,2.266569859375,16.666649609375L7.133235859375,22.266649609375L7.199905859375,22.333349609375C7.399905859375,22.600049609375,7.799905859375,22.733349609375,8.133235859374999,22.733349609375C8.466565859374999,22.733349609375,8.799905859375,22.600049609375,9.066565859375,22.400049609375L9.133235859374999,22.333349609375L13.999855859375,16.666649609375C14.399855859375,16.200049609375,14.333255859375,15.400049609375,13.866555859375,15.000049609375C13.399855859375,14.600049609375,12.599855859375,14.666649609375,12.199855859375,15.133349609375L9.533235859375,18.237149609375003L9.533235859375,7.573779609375L12.133255859375,10.600019609375ZM29.466555859375,3.599975609375L16.733255859375,3.599975609375C16.199855859375,3.599975609375,15.866555859375,4.066639609375,15.866555859375,4.999979609375C15.866555859375,5.933309609375,16.199855859375,6.399979609375,16.733255859375,6.399979609375L29.466555859375,6.399979609375C29.999855859375,6.399979609375,30.333255859375,5.933309609375,30.333255859375,4.999979609375C30.333255859375,4.066639609375,29.999855859375,3.599975609375,29.466555859375,3.599975609375ZM29.466555859375,10.999979609375L16.733255859375,10.999979609375C16.199855859375,10.999979609375,15.866555859375,11.466639609375,15.866555859375,12.399979609375C15.866555859375,13.333349609375,16.199855859375,13.799949609375,16.733255859375,13.799949609375L29.466555859375,13.799949609375C29.999855859375,13.799949609375,30.333255859375,13.333349609375,30.333255859375,12.399979609375C30.333255859375,11.466639609375,29.999855859375,10.999979609375,29.466555859375,10.999979609375ZM29.466555859375,18.333349609375L16.733255859375,18.333349609375C16.199855859375,18.333349609375,15.866555859375,18.799949609375,15.866555859375,19.733349609375C15.866555859375,20.666649609375,16.199855859375,21.133349609375,16.733255859375,21.133349609375L29.466555859375,21.133349609375C29.999855859375,21.133349609375,30.333255859375,20.666649609375,30.333255859375,19.733349609375C30.333255859375,18.799949609375,29.999855859375,18.333349609375,29.466555859375,18.333349609375ZM28.733255859375,25.599949609375L5.599895859375,25.599949609375C4.533235859375,25.599949609375,3.9332358593750003,26.133349609375,3.999895859375,27.066649609375C3.999895859375,27.999949609375,4.533235859375,28.466649609375,5.599895859375,28.399949609375L28.733255859375,28.399949609375Q30.333255859375,28.399949609375,30.333255859375,26.999949609375C30.333255859375,26.066649609375,29.866555859375,25.599949609375,28.733255859375,25.599949609375Z" fill-rule="evenodd" fill="#0095FF" fill-opacity="1"/></g></g></svg>