<svg xmlns="http://www.w3.org/2000/svg" xmlns:xlink="http://www.w3.org/1999/xlink" fill="none" version="1.1" width="32" height="32" viewBox="0 0 32 32"><defs><clipPath id="master_svg0_170_42237"><rect x="0" y="0" width="32" height="32" rx="0"/></clipPath></defs><g clip-path="url(#master_svg0_170_42237)"><g><path d="M16.733374613189696,3.5999999046325684L29.466674613189696,3.5999999046325684C29.999974613189696,3.5999999046325684,30.333374613189697,4.0666669046325685,30.333374613189697,4.999999904632569C30.333374613189697,5.9333299046325685,29.999974613189696,6.399999904632568,29.466674613189696,6.399999904632568L16.733374613189696,6.399999904632568C16.199974613189696,6.399999904632568,15.866674613189698,5.9333299046325685,15.866674613189698,4.999999904632569C15.866674613189698,4.0666669046325685,16.199974613189696,3.5999999046325684,16.733374613189696,3.5999999046325684ZM16.733374613189696,18.333299904632568L29.466674613189696,18.333299904632568C29.999974613189696,18.333299904632568,30.333374613189697,18.799999904632568,30.333374613189697,19.733299904632567C30.333374613189697,20.66669990463257,29.999974613189696,21.13329990463257,29.466674613189696,21.13329990463257L16.733374613189696,21.13329990463257C16.199974613189696,21.13329990463257,15.866674613189698,20.66669990463257,15.866674613189698,19.733299904632567C15.866674613189698,18.799999904632568,16.199974613189696,18.333299904632568,16.733374613189696,18.333299904632568ZM5.6000046131896974,25.59999990463257L28.733374613189696,25.59999990463257C29.866674613189698,25.59999990463257,30.333374613189697,26.066699904632568,30.333374613189697,26.999999904632567C30.333374613189697,27.93329990463257,29.799974613189697,28.39999990463257,28.733374613189696,28.39999990463257L5.6000046131896974,28.39999990463257C4.533333613189697,28.46669990463257,4.000000003189697,27.999999904632567,4.000000003189697,27.066699904632568C3.9333334131896973,26.13329990463257,4.533333613189697,25.59999990463257,5.6000046131896974,25.59999990463257ZM16.733374613189696,10.999999904632569L29.466674613189696,10.999999904632569C29.999974613189696,10.999999904632569,30.333374613189697,11.466669904632568,30.333374613189697,12.399999904632569C30.333374613189697,13.333329904632569,29.999974613189696,13.799999904632568,29.466674613189696,13.799999904632568L16.733374613189696,13.799999904632568C16.199974613189696,13.799999904632568,15.866674613189698,13.333329904632569,15.866674613189698,12.399999904632569C15.866674613189698,11.466669904632568,16.199974613189696,10.999999904632569,16.733374613189696,10.999999904632569ZM6.733334613189697,18.86669990463257L6.733334613189697,6.666669904632569C6.733334613189697,5.866669904632568,7.400004613189697,5.266669904632568,8.133334613189696,5.266669904632568C8.933334613189697,5.266669904632568,9.533334613189698,5.9333299046325685,9.533334613189698,6.666669904632569L9.533334613189698,18.93329990463257C9.533334613189698,19.733299904632567,8.866664613189698,20.333299904632568,8.133334613189696,20.333299904632568C7.400004613189697,20.333299904632568,6.733334613189697,19.66669990463257,6.733334613189697,18.86669990463257Z" fill="#383838" fill-opacity="1"/></g><g><path d="M8.133332657318114,22.733333396911622C7.800002657318116,22.733333396911622,7.400002657318115,22.60003339691162,7.200002657318115,22.33333339691162L7.133332657318115,22.266633396911622L2.2666666573181153,16.66663339691162C1.8666666573181152,16.20003339691162,1.8666666573181152,15.40003339691162,2.3999996573181153,15.000033396911622C2.866666657318115,14.600033396911622,3.666662657318115,14.600033396911622,4.0666626573181155,15.13333339691162L8.133332657318114,19.86663339691162L12.199952657318116,15.13333339691162C12.599952657318115,14.666633396911621,13.399952657318115,14.600033396911622,13.866652657318115,15.000033396911622C14.333352657318116,15.40003339691162,14.399952657318115,16.20003339691162,13.999952657318115,16.66663339691162L9.133332657318114,22.33333339691162L9.066662657318115,22.40003339691162C8.800002657318116,22.60003339691162,8.466662657318114,22.733333396911622,8.133332657318114,22.733333396911622ZM13.066652657318116,11.000003396911621C12.733352657318115,11.000003396911621,12.399952657318115,10.86666339691162,12.133352657318115,10.600003396911621L8.066662657318115,5.866663396911621L4.000002657318115,10.600003396911621C3.6000026573181154,11.066663396911622,2.799999657318115,11.13333339691162,2.333333657318115,10.733333396911622C1.8666667573181153,10.333333396911621,1.8000006573181153,9.53333339691162,2.199999657318115,9.066663396911622L7.0666626573181155,3.4000003969116213L7.133332657318115,3.333333396911621C7.666662657318115,2.800000396911621,8.533332657318116,2.800000396911621,9.066662657318115,3.333333396911621L9.133332657318114,3.4000003969116213L13.999952657318115,9.066663396911622C14.399952657318115,9.53333339691162,14.399952657318115,10.333333396911621,13.866652657318115,10.733333396911622C13.666652657318116,10.933333396911621,13.333352657318116,11.000003396911621,13.066652657318116,11.000003396911621Z" fill="#383838" fill-opacity="1"/></g></g></svg>