<svg xmlns="http://www.w3.org/2000/svg" xmlns:xlink="http://www.w3.org/1999/xlink" fill="none" version="1.1" width="12" height="16" viewBox="0 0 12 16"><g><g><path d="M0,0.4999847412109375L0,15.499984741210938C0,15.776084741210937,0.223861,15.999984741210938,0.500005,15.999984741210938L2.49999,15.999984741210938C2.77613,15.999984741210938,2.99998,15.776084741210937,2.99998,15.499984741210938L2.99998,0.4999847412109375C2.99998,0.2238427412109375,2.77612,-0.0000152587890625,2.49998,-0.0000152587890625L0.5,-0.0000152587890625C0.223858,-0.0000152587890625,0,0.2238427412109375,0,0.4999847412109375" fill="#353334" fill-opacity="1"/></g><g><path d="M9,0.5L9,15.5C9,15.7761,9.223861,16,9.500005,16L11.49999,16C11.77613,16,11.99998,15.7761,11.99998,15.5L11.99998,0.5C11.99998,0.223858,11.77612,0,11.49998,0L9.5,0C9.223858,0,9,0.223858,9,0.5" fill="#353334" fill-opacity="1"/></g></g></svg>