<svg xmlns="http://www.w3.org/2000/svg" xmlns:xlink="http://www.w3.org/1999/xlink" fill="none" version="1.1" width="20" height="20" viewBox="0 0 20 20"><defs><clipPath id="master_svg0_2366_09042"><rect x="0" y="0" width="20" height="20" rx="0"/></clipPath></defs><g clip-path="url(#master_svg0_2366_09042)"><g><path d="M9.132182890625,4.9715041015625L9.132182890625,15.8251541015625L4.458742890625,12.0863741015625L4.079362890625,11.7828041015625L2.209082890625,11.7828041015625L2.209082890625,9.0135541015625L4.079362890625,9.0135541015625L4.458742890625,8.709984101562501L9.132182890625,4.9715041015625ZM10.516812890625,2.0904541015625L3.593702890625,7.6289341015625L2.209082890625,7.6289341015625C1.444378890625,7.6289341015625,0.824462890625,8.2488541015625,0.824462890625,9.0135541015625L0.824462890625,11.7828041015625C0.824462890625,12.5475541015625,1.444378890625,13.1674541015625,2.209082890625,13.1674541015625L3.593702890625,13.1674541015625L10.516812890625,18.7058541015625L10.516812890625,2.0904541015625ZM13.048562890625,6.4817741015625L12.068262890625,7.4620941015625C12.820162890625,8.214634101562499,13.286062890625,9.2530941015625,13.286062890625,10.3981741015625C13.286062890625,11.5432641015625,12.820162890625,12.5817541015625,12.067962890625,13.3339541015625L13.048262890625,14.3142541015625C14.050662890625,13.3121541015625,14.670662890625,11.9274941015625,14.670662890625,10.3981741015625C14.670662890625,8.868864101562501,14.050662890625,7.4842441015625,13.048562890625,6.4817741015625ZM15.409662890625,5.5052541015625C16.663462890625,6.7586841015625,17.439862890625,8.4894641015625,17.439862890625,10.3981541015625C17.439862890625,12.3068541015625,16.663462890625,14.0376541015625,15.409662890625,15.2910541015625L16.391062890625,16.272454101562502C17.951562890625,14.7161541015625,18.827362890625,12.6020541015625,18.824462890625,10.3981541015625C18.827362890625,8.1942341015625,17.951662890625,6.0800641015625,16.391362890625,4.5235641015625L15.409662890625,5.5052541015625Z" fill="#3D3D3D" fill-opacity="1"/></g></g></svg>